<svg xmlns="http://www.w3.org/2000/svg" viewBox="0 0 512 512" role="img" aria-label="Keyboard">
  <path fill="#8fd4f7" d="M451.044 48.894H60.956C27.353 48.909.008 76.255 0 109.849v292.309c.008 33.603 27.353 60.94 60.956 60.948h390.088C484.655 463.099 512 435.761 512 402.158V109.849c0-33.594-27.345-60.94-60.956-60.955ZM120.977 433.084H60.956c-8.249 0-16.018-3.217-21.871-9.058-5.841-5.856-9.059-13.626-9.063-21.867V109.849c.004-8.24 3.222-16.01 9.059-21.859 5.856-5.848 13.626-9.066 21.879-9.074h32.904v197.951c0 9.028 7.342 16.373 16.366 16.373h10.748v139.844Zm124.755 0H141.518V293.241h12.341c9.024 0 16.366-7.346 16.366-16.373V78.917h48.397v197.951c0 9.028 7.338 16.373 16.362 16.373h10.749v139.843Zm124.758 0H266.272V293.241h12.345c9.024 0 16.362-7.346 16.362-16.373V78.917h48.398v197.951c0 9.028 7.338 16.373 16.358 16.373h10.756v139.843Zm111.496-30.926c-.008 8.241-3.225 16.011-9.059 21.867-5.864 5.841-13.626 9.058-21.883 9.058H391.03V293.241h12.345c9.02 0 16.358-7.346 16.358-16.373V78.917h31.31c8.257.008 16.019 3.225 21.875 9.066 5.842 5.856 9.059 13.626 9.067 21.866v292.309Z"/>
</svg>
