<svg xmlns="http://www.w3.org/2000/svg" viewBox="0 0 512 512" role="img" aria-label="Settings">
  <path fill="#8fd4f7" d="M499.453 210.004l-55.851-2.58a13.16 13.16 0 0 1-11.546-8.103l-11.508-27.695a13.16 13.16 0 0 1 2.455-13.914l37.668-41.332a13.17 13.17 0 0 0-.421-18.182l-46.434-46.443a13.17 13.17 0 0 0-18.2-.412l-41.312 37.668a13.16 13.16 0 0 1-13.924 2.436l-27.694-11.488a13.15 13.15 0 0 1-8.094-11.565l-2.589-55.831A13.17 13.17 0 0 0 288.864 0h-65.708A13.17 13.17 0 0 0 210 12.562l-2.571 55.831a13.15 13.15 0 0 1-8.094 11.565L171.64 91.447a13.16 13.16 0 0 1-13.924-2.436l-41.331-37.668a13.17 13.17 0 0 0-18.201.412L51.769 98.198a13.17 13.17 0 0 0-.422 18.182l37.668 41.332a13.16 13.16 0 0 1 2.416 13.914l-11.469 27.695a13.16 13.16 0 0 1-11.564 8.103l-55.832 2.58A13.17 13.17 0 0 0 .004 223.151v65.699a13.17 13.17 0 0 0 12.562 13.148l55.832 2.579a13.16 13.16 0 0 1 11.564 8.103l11.469 27.694a13.16 13.16 0 0 1-2.416 13.914l-37.668 41.313a13.17 13.17 0 0 0 .403 18.201l46.471 46.443a13.17 13.17 0 0 0 18.182.422l41.312-37.677a13.16 13.16 0 0 1 13.924-2.435l27.694 11.478a13.15 13.15 0 0 1 8.094 11.575l2.571 55.831A13.17 13.17 0 0 0 223.154 512h65.708A13.17 13.17 0 0 0 302 499.438l2.589-55.831a13.15 13.15 0 0 1 8.094-11.575l27.694-11.478a13.16 13.16 0 0 1 13.924 2.435l41.312 37.677a13.17 13.17 0 0 0 18.2-.422l46.434-46.443a13.17 13.17 0 0 0 .421-18.201L423 354.288a13.16 13.16 0 0 1-2.455-13.914l11.508-27.694a13.16 13.16 0 0 1 11.546-8.103l55.851-2.579a13.17 13.17 0 0 0 12.542-13.148v-65.699a13.17 13.17 0 0 0-12.539-13.147ZM256.01 339.618a83.617 83.617 0 1 1 0-167.234 83.617 83.617 0 0 1 0 167.234Z"/>
</svg>
